<svg width="140" height="13" viewBox="0 0 140 13" fill="none" xmlns="http://www.w3.org/2000/svg">
<path fill-rule="evenodd" clip-rule="evenodd" d="M25.4609 12.268C26.369 12.268 27.1981 12.1186 27.9481 11.8197C28.6982 11.5208 29.3405 11.1005 29.875 10.5586C30.4095 10.0167 30.8233 9.37002 31.1164 8.61864C31.4095 7.86725 31.5561 7.04183 31.5561 6.1424C31.5561 5.24297 31.4095 4.41756 31.1164 3.66617C30.8233 2.91478 30.4095 2.26674 29.875 1.72205C29.3405 1.17736 28.6982 0.754183 27.9481 0.45251C27.1981 0.150837 26.369 0 25.4609 0C24.5529 0 23.7252 0.150837 22.9781 0.45251C22.2309 0.754183 21.5901 1.17736 21.0555 1.72205C20.521 2.26674 20.1072 2.91478 19.8141 3.66617C19.521 4.41756 19.3744 5.24297 19.3744 6.1424C19.3744 7.04183 19.521 7.86725 19.8141 8.61864C20.1072 9.37002 20.521 10.0167 21.0555 10.5586C21.5901 11.1005 22.2309 11.5208 22.9781 11.8197C23.7252 12.1186 24.5529 12.268 25.4609 12.268ZM1.46559 12.1414V3.5856C1.46559 3.47387 1.46272 3.35097 1.45697 3.21689C1.45123 3.08281 1.4426 2.94594 1.43111 2.80628L8.57803 11.8481C8.66424 11.9542 8.75189 12.0297 8.84098 12.0743C8.93006 12.119 9.0407 12.1414 9.17289 12.1414H10.0178V0.133118H8.55217V8.63863C8.55217 8.76712 8.55504 8.8998 8.56079 9.03667C8.56654 9.17354 8.57803 9.3146 8.59527 9.45985L1.43973 0.409652C1.34777 0.297921 1.26587 0.2239 1.19403 0.187587C1.12218 0.151275 1.01155 0.133118 0.862114 0.133118H0V12.1414H1.46559ZM23.659 10.5376C24.1993 10.7527 24.7999 10.8602 25.4608 10.8602C26.1275 10.8602 26.731 10.7527 27.2713 10.5376C27.8115 10.3225 28.2713 10.0125 28.6507 9.60744C29.03 9.20242 29.3231 8.70801 29.53 8.12422C29.7369 7.54042 29.8404 6.87981 29.8404 6.14239C29.8404 5.40497 29.7369 4.74296 29.53 4.15638C29.3231 3.56979 29.03 3.07398 28.6507 2.66896C28.2713 2.26394 27.8115 1.95249 27.2713 1.73461C26.731 1.51674 26.1275 1.4078 25.4608 1.4078C24.7999 1.4078 24.1993 1.51674 23.659 1.73461C23.1188 1.95249 22.6575 2.26394 22.2753 2.66896C21.8931 3.07398 21.5986 3.56979 21.3917 4.15638C21.1847 4.74296 21.0813 5.40497 21.0813 6.14239C21.0813 6.87981 21.1847 7.54042 21.3917 8.12422C21.5986 8.70801 21.8931 9.20242 22.2753 9.60744C22.6575 10.0125 23.1188 10.3225 23.659 10.5376ZM42.723 12.1423V7.13122H43.9903C44.2202 7.13122 44.3927 7.16055 44.5076 7.2192C44.6225 7.27786 44.7289 7.37423 44.8266 7.50831L48.0336 11.7988C48.1773 12.0278 48.4015 12.1423 48.7061 12.1423H50.1889L46.5853 7.37423C46.4244 7.15077 46.2404 6.98038 46.0335 6.86306C46.5106 6.75692 46.9373 6.6005 47.3138 6.39379C47.6902 6.18709 48.0092 5.93709 48.2707 5.6438C48.5322 5.35051 48.732 5.01951 48.8699 4.65079C49.0078 4.28208 49.0768 3.88544 49.0768 3.46086C49.0768 2.95249 48.9877 2.49299 48.8095 2.08238C48.6314 1.67177 48.3569 1.32122 47.9862 1.03072C47.6155 0.740216 47.1457 0.518151 46.5767 0.364521C46.0077 0.210891 45.3324 0.134076 44.5507 0.134076H41.0591V12.1423H42.723ZM42.723 5.94964H44.4731C44.9616 5.94964 45.3913 5.89238 45.762 5.77786C46.1327 5.66333 46.443 5.50132 46.6931 5.29183C46.9431 5.08233 47.1313 4.83234 47.2577 4.54184C47.3842 4.25134 47.4474 3.93011 47.4474 3.57816C47.4474 2.86308 47.2046 2.32398 46.7189 1.96085C46.2333 1.59773 45.5105 1.41617 44.5507 1.41617H42.723V5.94964ZM60.5025 12.1423V3.3184C60.5025 3.20109 60.4982 3.0726 60.4896 2.93293C60.481 2.79327 60.4681 2.65081 60.4508 2.50556L64.7786 10.039C64.9223 10.2904 65.1235 10.4161 65.3821 10.4161H65.6235C65.8821 10.4161 66.0833 10.2904 66.227 10.039L70.46 2.5307C70.4485 2.67036 70.4398 2.80724 70.4341 2.94131C70.4284 3.07539 70.4255 3.20109 70.4255 3.3184V12.1423H71.8911V0.134076H70.6582C70.5088 0.134076 70.3939 0.148042 70.3134 0.175975C70.2329 0.203908 70.1553 0.282119 70.0806 0.41061L65.8994 7.79322C65.8189 7.93847 65.7471 8.08232 65.6839 8.22478C65.6206 8.36724 65.5603 8.51668 65.5028 8.6731C65.4453 8.52227 65.3864 8.37282 65.3261 8.22478C65.2657 8.07674 65.1953 7.93568 65.1149 7.8016L60.8474 0.41061C60.7727 0.282119 60.6951 0.203908 60.6146 0.175975C60.5342 0.148042 60.4192 0.134076 60.2698 0.134076H59.037V12.1423H60.5025ZM82.1872 12.025C82.0895 12.1032 81.9688 12.1423 81.8251 12.1423H80.5319L85.4718 0.134076H87.1702L92.1101 12.1423H90.8169C90.6675 12.1423 90.5468 12.106 90.4548 12.0334C90.3629 11.9608 90.2939 11.8686 90.2479 11.7569L89.0927 8.85746H83.5493L82.3941 11.7569C82.3539 11.8574 82.2849 11.9468 82.1872 12.025ZM88.6274 7.68429H84.0151L85.9548 2.80724C86.0123 2.66199 86.0712 2.49299 86.1316 2.30026C86.1919 2.10752 86.2537 1.89663 86.3169 1.66758C86.4376 2.12009 86.5612 2.49718 86.6876 2.79886L88.6274 7.68429ZM107.734 10.7764V12.1423H100.717V0.134076H102.389V10.7764H107.734ZM123.643 12.1423V10.7764H118.298V0.134076H116.625V12.1423H123.643ZM135.465 7.36585V12.1423H133.801V7.36585L129.275 0.134076H130.741C130.89 0.134076 131.008 0.170388 131.094 0.243014C131.181 0.315639 131.255 0.405023 131.319 0.511167L134.146 5.17872C134.261 5.37425 134.357 5.55861 134.435 5.73179C134.513 5.90497 134.583 6.07536 134.646 6.24296C134.71 6.06977 134.778 5.89659 134.853 5.72341C134.928 5.55023 135.023 5.36866 135.138 5.17872L137.957 0.511167C138.009 0.421783 138.079 0.336588 138.168 0.255583C138.257 0.174578 138.374 0.134076 138.517 0.134076H140L135.465 7.36585Z" fill="black"/>
</svg>
