<svg width="161" height="56" viewBox="0 0 161 56" fill="none" xmlns="http://www.w3.org/2000/svg">
<g clip-path="url(#clip0)">
<path d="M27.0518 29.8354L27.4975 30.184C27.5983 30.2628 27.6937 30.3382 27.785 30.4102C28.1858 30.7266 28.505 30.9786 28.8365 31.178L28.8466 31.1841L28.8561 31.1911C30.7101 32.5588 32.5632 33.926 34.4155 35.2723C35.034 35.7084 35.6409 36.1359 36.2845 36.5001L36.2928 36.5048L36.2927 36.505C36.3012 36.5102 36.3097 36.5155 36.3184 36.5208C36.4307 36.5899 36.5523 36.6648 36.654 36.7625C36.7728 36.8768 36.8601 37.0162 36.9185 37.2082L36.9193 37.2109L36.9193 37.2109C37.2121 38.2134 38.131 38.8009 39.2658 38.6853L39.2678 38.6851C40.2016 38.5974 41.0123 37.7902 41.1083 36.823L41.1085 36.821C41.1858 36.1013 41.2212 35.3645 41.1956 34.6315C41.1844 34.3105 41.0949 33.9471 40.9292 33.6909C40.9289 33.6906 40.9287 33.6902 40.9285 33.6898L41.1382 33.5538C40.8085 33.0576 40.7348 32.5341 40.6586 31.9924C40.6538 31.958 40.6489 31.9236 40.644 31.8891L27.0518 29.8354ZM27.0518 29.8354L27.0941 30.3996C27.1141 30.6661 27.1311 30.9251 27.1477 31.1784C27.1948 31.8964 27.2389 32.5681 27.3399 33.2339C27.6086 35.0034 27.7931 36.7667 27.7529 38.5543L27.7529 38.5549C27.7354 39.43 27.3631 40.1032 26.8196 40.4866C26.2772 40.8692 25.5385 40.9815 24.7468 40.6852C24.3353 40.5295 24.0369 40.3 23.8317 40.0111C23.6255 39.7209 23.5031 39.3561 23.4685 38.9151L23.4684 38.9136C23.3269 37.2384 23.2068 35.5828 23.0859 33.905C23.0371 33.2234 22.9819 32.5424 22.9267 31.8621C22.8435 30.8373 22.7605 29.8141 22.6999 28.7927L22.6998 28.791C22.6561 28.1315 22.6278 27.4709 22.5994 26.8069L22.5994 26.8055C22.5711 26.1442 22.5427 25.4795 22.4987 24.8149C22.4886 24.5465 22.4063 24.2638 22.2788 24.0296L22.2791 24.0294L22.2726 24.0189C21.473 22.7087 22.0197 21.2097 23.442 20.7491L23.442 20.7491L23.4433 20.7486C23.5163 20.7245 23.5883 20.7004 23.6596 20.6765C24.0825 20.5345 24.4764 20.4024 24.8733 20.355C25.7135 20.2701 26.4333 20.6155 26.8238 21.3315C26.9904 21.647 27.1115 21.9881 27.224 22.35C27.2623 22.4734 27.3002 22.6014 27.3387 22.7316C27.4106 22.9743 27.4848 23.2247 27.5681 23.467L27.0518 29.8354Z" fill="black" stroke="white" stroke-width="0.5"/>
<path d="M101.559 23.3177L101.56 23.62L101.857 23.5617C102.188 23.4965 102.506 23.4306 102.817 23.3664C103.601 23.204 104.332 23.0525 105.08 22.9527L105.08 22.9527L105.083 22.9523L105.175 22.939C106.653 22.7246 108.102 22.5144 109.573 22.4023C110.696 22.3275 111.65 23.2805 111.71 24.4469C111.747 25.5262 110.876 26.4802 109.767 26.652C108.617 26.8114 107.454 26.9994 106.294 27.1868C105.437 27.3254 104.582 27.4636 103.736 27.5895L103.736 27.5894L103.731 27.5903C103.304 27.6625 102.889 27.714 102.457 27.7676C102.269 27.7909 102.077 27.8147 101.88 27.8408L101.659 27.8701L101.663 28.0936C101.671 28.4917 101.679 28.8864 101.687 29.2812C101.706 30.2648 101.726 31.2487 101.747 32.2853L101.754 32.6024L102.06 32.522C102.257 32.4706 102.448 32.4195 102.637 32.3693C103.246 32.2073 103.824 32.0534 104.417 31.9227C105.291 31.7369 106.17 31.5611 107.052 31.3849L107.052 31.3848C107.933 31.209 108.815 31.0327 109.692 30.8463C109.995 30.7883 110.265 30.6626 110.53 30.5288C111.563 30.0448 112.764 30.3993 113.332 31.322C113.9 32.2623 113.653 33.4427 112.754 34.1532L112.753 34.1532C112.116 34.657 111.345 34.8639 110.522 35.0376L110.522 35.0378C109.305 35.2984 108.094 35.5641 106.883 35.8295L106.882 35.8297C105.672 36.0951 104.462 36.3604 103.247 36.6207C103.011 36.6708 102.779 36.7252 102.551 36.7788C101.61 37.0004 100.729 37.2075 99.7874 37.0343L99.7871 37.0342C98.3689 36.7749 97.4077 35.6404 97.4191 34.3621C97.4497 32.2603 97.418 30.1614 97.3864 28.0667L97.3863 28.0647L97.3864 28.0647L97.3862 28.0598C97.381 27.911 97.3324 27.7581 97.2693 27.6279C97.2061 27.4973 97.1185 27.3692 97.0163 27.2737C96.3549 26.6471 96.044 25.9785 96.0396 25.3262C96.0352 24.6738 96.337 23.9916 96.9939 23.3375C97.1285 23.2088 97.2017 23.0287 97.2395 22.8568C97.2785 22.6794 97.2858 22.4837 97.2675 22.2965C97.2493 22.1096 97.2044 21.9199 97.1305 21.7562C97.0591 21.5977 96.948 21.4363 96.7804 21.3459C95.992 20.9031 95.6875 20.124 95.7335 19.3392C95.7801 18.5429 96.1862 17.7834 96.7661 17.4167L96.7661 17.4167L96.7666 17.4163C97.4192 17.0011 98.1395 16.7779 98.9325 16.7104L98.9325 16.7105L98.9392 16.7098C99.4926 16.6477 100.036 16.5275 100.565 16.408C100.589 16.4026 100.613 16.3973 100.636 16.392C101.145 16.277 101.641 16.165 102.141 16.0992L102.141 16.0992L102.143 16.099C104.371 15.7931 106.622 15.528 108.873 15.325L108.875 15.3249C109.837 15.2321 110.732 15.457 111.297 16.3055L111.297 16.3055L111.299 16.3077C111.775 17.0072 111.834 17.7187 111.469 18.4583C111.091 19.2222 110.504 19.6788 109.697 19.6355C107.767 19.5264 105.88 19.8444 104.025 20.157C103.449 20.2541 102.876 20.3506 102.306 20.4337C102.05 20.4653 101.81 20.5396 101.654 20.734C101.498 20.9277 101.473 21.1815 101.493 21.4482L101.494 21.4563L101.495 21.4644C101.559 21.9124 101.559 22.3734 101.558 22.9121C101.558 23.0424 101.558 23.1774 101.559 23.3177Z" fill="black" stroke="white" stroke-width="0.5"/>
<path d="M126.725 23.6896L126.529 23.9763L126.863 24.0708C127.088 24.1346 127.297 24.2017 127.502 24.2676C127.559 24.2861 127.617 24.3046 127.674 24.3228C127.932 24.405 128.189 24.4826 128.452 24.5388C129.364 24.7374 130.275 24.9282 131.186 25.1189C132.5 25.3939 133.813 25.6687 135.123 25.9664L135.124 25.9666C136.141 26.1934 137.093 26.6012 137.89 27.2676L137.891 27.2689C138.666 27.9066 139.074 28.7119 139.129 29.5301C139.184 30.3483 138.887 31.2023 138.208 31.9399C137.284 32.9311 136.1 33.5593 134.839 34.1195C132.121 35.3058 129.281 36.0658 126.383 36.6638C125.37 36.8689 124.347 36.3919 123.912 35.5606C123.678 35.1036 123.605 34.6523 123.677 34.223C123.749 33.7928 123.969 33.3667 124.351 32.9673C124.542 32.773 124.727 32.5792 124.912 32.3867L124.913 32.386C125.098 32.193 125.281 32.0014 125.47 31.8098C125.9 31.3894 126.35 31.1644 126.81 31.1074C127.271 31.0502 127.767 31.1586 128.292 31.4505C128.393 31.5089 128.514 31.5614 128.638 31.5927C128.76 31.6233 128.907 31.6396 129.049 31.5989L129.049 31.5989L129.052 31.598C129.802 31.3724 130.556 31.1198 131.3 30.8705C131.719 30.7299 132.136 30.5903 132.547 30.4571L132.569 30.45L132.59 30.4389C132.635 30.4143 132.679 30.3901 132.864 30.2789L133.425 29.9406L132.781 29.819C132.506 29.7673 132.251 29.7221 132.008 29.6791C131.499 29.5893 131.047 29.5094 130.599 29.4001L130.595 29.3993C130.375 29.3489 130.155 29.2989 129.935 29.249C128.502 28.9235 127.082 28.601 125.69 28.1846C124.959 27.9556 124.266 27.4857 123.63 26.9927L123.629 26.992C122.259 25.9381 121.878 24.2909 122.587 22.5043L122.588 22.5033C123.068 21.2804 123.838 20.2408 124.728 19.2657C126.85 16.9904 129.291 15.1403 132.138 13.8718C133.175 13.4105 134.234 13.1608 135.359 13.3568C135.929 13.4576 136.462 13.7999 136.839 14.2692C137.216 14.7386 137.423 15.3163 137.369 15.8749L137.369 15.8756C137.298 16.641 137.019 17.2527 136.608 17.6642C136.2 18.0728 135.65 18.2978 135.001 18.2741C134.994 18.2737 134.986 18.2732 134.979 18.2728C134.868 18.2667 134.763 18.2609 134.666 18.2437C134.559 18.2249 134.493 18.1973 134.457 18.1673L134.448 18.1602L134.439 18.1539C134.157 17.964 133.886 17.9063 133.617 17.9469C133.364 17.9851 133.134 18.1085 132.928 18.2309C130.782 19.4951 128.745 20.9546 127.188 22.9963C127.12 23.0822 127.054 23.1825 126.984 23.2918C126.974 23.3078 126.964 23.3241 126.953 23.3407C126.889 23.4418 126.816 23.5558 126.725 23.6896Z" fill="black" stroke="white" stroke-width="0.5"/>
<path d="M63.6101 34.0421L63.6092 34.0439C62.5158 36.3057 60.7441 37.8021 58.2982 38.1674C55.1342 38.6402 51.1263 36.6849 50.8388 32.4388L50.8388 32.4388C50.5853 28.6989 51.4255 25.2142 53.4833 22.0537L53.4835 22.0534C54.0857 21.1259 54.7203 20.5798 55.4388 20.3399C56.1585 20.0997 57.0043 20.1527 58.0573 20.5099L58.0573 20.51L58.0627 20.5117C58.2714 20.5772 58.484 20.5979 58.6784 20.6097C58.7371 20.6133 58.7932 20.616 58.8475 20.6187C58.9809 20.6253 59.1036 20.6313 59.2282 20.6475C61.4457 20.9882 62.8781 22.2593 63.7338 24.3365C64.2884 25.7526 64.4846 27.2486 64.4981 28.8063C64.5003 30.6523 64.4158 32.4089 63.6101 34.0421ZM60.1168 26.9733L60.1081 26.7235L59.8641 26.732C59.8637 26.732 59.8633 26.7319 59.8629 26.7319C59.8565 26.7311 59.8486 26.7298 59.8345 26.7275L59.8329 26.7273C59.8209 26.7253 59.8035 26.7224 59.7859 26.7203C59.768 26.7181 59.7416 26.7155 59.7124 26.7165L59.597 26.7206L59.5252 26.811C59.0918 27.3574 58.571 27.7053 57.9758 27.6913C57.6726 27.6829 57.3603 27.6175 57.025 27.5295C56.9103 27.4995 56.7904 27.466 56.6674 27.4316C56.4422 27.3687 56.2066 27.3028 55.9743 27.2499L55.7454 27.1978L55.679 27.423C55.2485 28.8824 54.9195 30.4865 55.084 32.1471C55.1465 32.8592 55.6603 33.4211 56.2685 33.7255C56.8771 34.0302 57.6413 34.1088 58.261 33.7837L58.2619 33.7833C59.0103 33.3869 59.6807 32.7785 59.9042 31.8675C60.0906 31.1404 60.2124 30.3726 60.2501 29.6272L60.2503 29.6272L60.2504 29.6174C60.2557 29.16 60.2293 28.7112 60.1984 28.2724C60.192 28.1821 60.1855 28.0925 60.179 28.0033C60.1536 27.6558 60.1288 27.3152 60.1168 26.9733Z" fill="black" stroke="white" stroke-width="0.5"/>
<path d="M78.9238 23.8248L78.9147 23.5666L78.657 23.5841C78.2052 23.6147 77.7606 23.6477 77.3213 23.6802C76.5255 23.7392 75.7469 23.7969 74.9736 23.8372L74.973 23.8372C73.9147 23.895 72.8652 23.9522 71.8355 23.947L71.8348 23.947C70.825 23.9448 70.1124 23.3831 69.8574 22.4634L69.8571 22.4622C69.5727 21.4559 69.9097 20.4549 70.6612 20.0165C71.0298 19.8165 71.4864 19.7027 71.9361 19.6674L71.9361 19.6674L71.9375 19.6673C73.3516 19.5482 74.7703 19.4462 76.1908 19.344C78.5636 19.1734 80.9415 19.0024 83.3108 18.7507L83.3119 18.7506C85.0242 18.5611 86.7085 18.1961 88.3819 17.8334C88.8665 17.7284 89.3502 17.6236 89.8334 17.5233L89.8352 17.5229C91.1167 17.2469 92.2941 17.8624 92.588 18.9794C92.9121 20.2222 92.2311 21.3747 90.9502 21.6636C88.6853 22.1367 86.3989 22.5899 84.1116 23.0224C83.8895 23.0622 83.6682 23.1245 83.5135 23.2904C83.3532 23.4622 83.31 23.6938 83.3078 23.9515L83.3078 23.9543C83.3126 25.8741 83.307 27.7943 83.3013 29.7128L83.3011 29.7681C83.2955 31.6678 83.2899 33.5658 83.2943 35.4584L83.2943 35.4592C83.2979 36.1215 83.1278 36.6639 82.8264 37.0681C82.5265 37.4705 82.084 37.7533 81.5093 37.8781C80.6515 38.0545 79.6662 37.6075 79.2269 36.7484L79.226 36.7468C78.7607 35.8535 78.3162 34.9404 77.9125 34.0063C77.5319 33.1175 77.8045 32.1839 78.5558 31.553C78.6635 31.4657 78.7619 31.3448 78.8334 31.2189C78.902 31.0982 78.9627 30.9432 78.9592 30.7867C78.9788 29.3432 78.9795 27.8991 78.9803 26.4506C78.9806 25.7521 78.981 25.0525 78.9835 24.3514L78.9836 24.3328L78.9808 24.3143C78.9751 24.2748 78.9695 24.2389 78.9644 24.2054C78.944 24.0731 78.929 23.976 78.9238 23.8248Z" fill="black" stroke="white" stroke-width="0.5"/>
<path d="M59.8672 26.982C59.9183 27.8523 60.011 28.7212 59.9792 29.5945C59.9423 30.3225 59.8232 31.0742 59.6404 31.7866C59.4405 32.6034 58.8579 33.1636 58.1236 33.5423C57.064 34.1191 55.4159 33.3046 55.3117 32.1039C55.1722 30.4891 55.4705 28.9213 55.8975 27.4736C56.6092 27.6357 57.283 27.9028 57.9481 27.9211C58.6554 27.9587 59.2424 27.5229 59.6998 26.9463C59.7628 26.9649 59.805 26.9842 59.8672 26.982Z" fill="white"/>
</g>
<rect x="2" y="2" width="157" height="52" rx="2" stroke="black" stroke-width="4"/>
<defs>
<clipPath id="clip0">
<rect width="117.415" height="24.2592" fill="white" transform="translate(21.4556 16.9651) rotate(-2)"/>
</clipPath>
</defs>
</svg>
